<svg xmlns="http://www.w3.org/2000/svg" width="1216" height="569" viewBox="0 0 1216.00 568.80" font-family="ui-monospace,SFMono-Regular,Menlo,Consolas,'DejaVu Sans Mono','Noto Sans Mono CJK JP','Hiragino Kaku Gothic ProN','Yu Gothic',monospace" font-size="15.0">
<title>git-dashboard-tui — cross-repository contributors</title>
<rect width="1216.00" height="568.80" rx="10" fill="#181825"/>
<circle cx="20.0" cy="15.0" r="5" fill="#f38ba8"/>
<circle cx="35.0" cy="15.0" r="5" fill="#f9e2af"/>
<circle cx="50.0" cy="15.0" r="5" fill="#a6e3a1"/>
<text x="608.0" y="19.0" fill="#7f849c" font-size="10.8" text-anchor="middle">git-dashboard-tui — cross-repository contributors</text>
<rect x="14.00" y="40.00" width="1188.00" height="514.80" fill="#1e1e2e"/>
<rect x="14.00" y="40.00" width="234.00" height="19.80" fill="#89b4fa"/>
<text x="23.00" y="55.05" fill="#1e1e2e" font-weight="bold">全</text>
<text x="41.00" y="55.05" fill="#1e1e2e" font-weight="bold">リ</text>
<text x="59.00" y="55.05" fill="#1e1e2e" font-weight="bold">ポ</text>
<text x="77.00" y="55.05" fill="#1e1e2e" font-weight="bold">ジ</text>
<text x="95.00" y="55.05" fill="#1e1e2e" font-weight="bold">ト</text>
<text x="113.00" y="55.05" fill="#1e1e2e" font-weight="bold">リ</text>
<text x="131.00" y="55.05" fill="#1e1e2e" font-weight="bold">横</text>
<text x="149.00" y="55.05" fill="#1e1e2e" font-weight="bold">断</text>
<text x="167.00" y="55.05" fill="#1e1e2e" font-weight="bold">メ</text>
<text x="185.00" y="55.05" fill="#1e1e2e" font-weight="bold">ン</text>
<text x="203.00" y="55.05" fill="#1e1e2e" font-weight="bold">バ</text>
<text x="221.00" y="55.05" fill="#1e1e2e" font-weight="bold">ー</text>
<text x="266.00" y="55.05" fill="#6c7086" xml:space="preserve">git-dashboard-tui</text>
<text x="14.00" y="74.85" fill="#89b4fa">┌</text>
<text x="23.00" y="74.85" fill="#89b4fa">メ</text>
<text x="41.00" y="74.85" fill="#89b4fa">ン</text>
<text x="59.00" y="74.85" fill="#89b4fa">バ</text>
<text x="77.00" y="74.85" fill="#89b4fa">ー</text>
<text x="95.00" y="74.85" fill="#89b4fa">一</text>
<text x="113.00" y="74.85" fill="#89b4fa">覧</text>
<text x="140.00" y="74.85" fill="#89b4fa" xml:space="preserve">(4/4)───────────────────────────────────────┐</text>
<text x="545.00" y="74.85" fill="#45475a" xml:space="preserve">┌</text>
<text x="554.00" y="74.85" fill="#89b4fa">担</text>
<text x="572.00" y="74.85" fill="#89b4fa">当</text>
<text x="590.00" y="74.85" fill="#89b4fa">・</text>
<text x="608.00" y="74.85" fill="#89b4fa">関</text>
<text x="626.00" y="74.85" fill="#89b4fa">与</text>
<text x="644.00" y="74.85" fill="#89b4fa">リ</text>
<text x="662.00" y="74.85" fill="#89b4fa">ポ</text>
<text x="680.00" y="74.85" fill="#89b4fa">ジ</text>
<text x="698.00" y="74.85" fill="#89b4fa">ト</text>
<text x="716.00" y="74.85" fill="#89b4fa">リ</text>
<text x="743.00" y="74.85" fill="#89b4fa" xml:space="preserve">-</text>
<text x="761.00" y="74.85" fill="#89b4fa" xml:space="preserve">Dara</text>
<text x="806.00" y="74.85" fill="#89b4fa" xml:space="preserve">Osei</text>
<text x="851.00" y="74.85" fill="#89b4fa" xml:space="preserve">(3</text>
<text x="878.00" y="74.85" fill="#89b4fa" xml:space="preserve">repos,</text>
<text x="941.00" y="74.85" fill="#89b4fa" xml:space="preserve">5</text>
<text x="959.00" y="74.85" fill="#89b4fa" xml:space="preserve">commits)</text>
<text x="1049.00" y="74.85" fill="#89b4fa" xml:space="preserve">[Enter:</text>
<text x="1121.00" y="74.85" fill="#89b4fa" xml:space="preserve">Open</text>
<text x="1166.00" y="74.85" fill="#89b4fa" xml:space="preserve">Rep</text>
<text x="1193.00" y="74.85" fill="#45475a" xml:space="preserve">┐</text>
<rect x="23.00" y="79.60" width="513.00" height="19.80" fill="#45475a"/>
<text x="14.00" y="94.65" fill="#89b4fa" xml:space="preserve">│</text>
<text x="23.00" y="94.65" fill="#cdd6f4" font-weight="bold" xml:space="preserve">▸</text>
<text x="41.00" y="94.65" fill="#cdd6f4" font-weight="bold" xml:space="preserve">[</text>
<text x="59.00" y="94.65" fill="#cdd6f4" font-weight="bold" xml:space="preserve">]</text>
<text x="77.00" y="94.65" fill="#cdd6f4" font-weight="bold" xml:space="preserve">Dara</text>
<text x="122.00" y="94.65" fill="#cdd6f4" font-weight="bold" xml:space="preserve">Osei</text>
<text x="230.00" y="94.65" fill="#cdd6f4" font-weight="bold" xml:space="preserve">(3</text>
<text x="257.00" y="94.65" fill="#cdd6f4" font-weight="bold" xml:space="preserve">repos,</text>
<text x="320.00" y="94.65" fill="#cdd6f4" font-weight="bold" xml:space="preserve">5</text>
<text x="338.00" y="94.65" fill="#cdd6f4" font-weight="bold" xml:space="preserve">commits)</text>
<text x="428.00" y="94.65" fill="#cdd6f4" font-weight="bold" xml:space="preserve">last:</text>
<text x="482.00" y="94.65" fill="#cdd6f4" font-weight="bold" xml:space="preserve">2025-0</text>
<text x="536.00" y="94.65" fill="#89b4fa" xml:space="preserve">│</text>
<text x="545.00" y="94.65" fill="#45475a" xml:space="preserve">│</text>
<text x="572.00" y="94.65" fill="#a6adc8" font-weight="bold">リ</text>
<text x="590.00" y="94.65" fill="#a6adc8" font-weight="bold">ポ</text>
<text x="608.00" y="94.65" fill="#a6adc8" font-weight="bold">ジ</text>
<text x="626.00" y="94.65" fill="#a6adc8" font-weight="bold">ト</text>
<text x="644.00" y="94.65" fill="#a6adc8" font-weight="bold">リ</text>
<text x="779.00" y="94.65" fill="#a6adc8" font-weight="bold">コ</text>
<text x="797.00" y="94.65" fill="#a6adc8" font-weight="bold">ミ</text>
<text x="815.00" y="94.65" fill="#a6adc8" font-weight="bold">ッ</text>
<text x="833.00" y="94.65" fill="#a6adc8" font-weight="bold">ト</text>
<text x="851.00" y="94.65" fill="#a6adc8" font-weight="bold">数</text>
<text x="878.00" y="94.65" fill="#a6adc8" font-weight="bold">活</text>
<text x="896.00" y="94.65" fill="#a6adc8" font-weight="bold">動</text>
<text x="914.00" y="94.65" fill="#a6adc8" font-weight="bold">期</text>
<text x="932.00" y="94.65" fill="#a6adc8" font-weight="bold">間</text>
<text x="1103.00" y="94.65" fill="#a6adc8" font-weight="bold">パ</text>
<text x="1121.00" y="94.65" fill="#a6adc8" font-weight="bold">ス</text>
<text x="1193.00" y="94.65" fill="#45475a" xml:space="preserve">│</text>
<rect x="554.00" y="99.40" width="639.00" height="19.80" fill="#45475a"/>
<text x="14.00" y="114.45" fill="#89b4fa" xml:space="preserve">│</text>
<text x="41.00" y="114.45" fill="#6c7086" xml:space="preserve">[</text>
<text x="59.00" y="114.45" fill="#6c7086" xml:space="preserve">]</text>
<text x="77.00" y="114.45" fill="#6c7086" xml:space="preserve">Aya</text>
<text x="113.00" y="114.45" fill="#6c7086" xml:space="preserve">Tanaka</text>
<text x="230.00" y="114.45" fill="#89b4fa" xml:space="preserve">(3</text>
<text x="257.00" y="114.45" fill="#89b4fa" xml:space="preserve">repos,</text>
<text x="320.00" y="114.45" fill="#89b4fa" xml:space="preserve">5</text>
<text x="338.00" y="114.45" fill="#89b4fa" xml:space="preserve">commits)</text>
<text x="428.00" y="114.45" fill="#a6adc8" xml:space="preserve">last:</text>
<text x="482.00" y="114.45" fill="#a6adc8" xml:space="preserve">2025-0</text>
<text x="536.00" y="114.45" fill="#89b4fa" xml:space="preserve">│</text>
<text x="545.00" y="114.45" fill="#45475a" xml:space="preserve">│</text>
<text x="554.00" y="114.45" fill="#cdd6f4" font-weight="bold" xml:space="preserve">▸</text>
<text x="572.00" y="114.45" fill="#cdd6f4" font-weight="bold" xml:space="preserve">infra-terraform</text>
<text x="815.00" y="114.45" fill="#cdd6f4" font-weight="bold" xml:space="preserve">2</text>
<text x="878.00" y="114.45" fill="#cdd6f4" font-weight="bold" xml:space="preserve">2025-08-12</text>
<text x="977.00" y="114.45" fill="#cdd6f4" font-weight="bold" xml:space="preserve">23:20:00</text>
<text x="1058.00" y="114.45" fill="#cdd6f4" font-weight="bold" xml:space="preserve">~</text>
<text x="1076.00" y="114.45" fill="#cdd6f4" font-weight="bold" xml:space="preserve">20</text>
<text x="1103.00" y="114.45" fill="#cdd6f4" font-weight="bold" xml:space="preserve">/home/dev/</text>
<text x="1193.00" y="114.45" fill="#45475a" xml:space="preserve">│</text>
<text x="14.00" y="134.25" fill="#89b4fa" xml:space="preserve">│</text>
<text x="41.00" y="134.25" fill="#6c7086" xml:space="preserve">[</text>
<text x="59.00" y="134.25" fill="#6c7086" xml:space="preserve">]</text>
<text x="77.00" y="134.25" fill="#6c7086" xml:space="preserve">Ben</text>
<text x="113.00" y="134.25" fill="#6c7086" xml:space="preserve">Ortiz</text>
<text x="230.00" y="134.25" fill="#89b4fa" xml:space="preserve">(1</text>
<text x="257.00" y="134.25" fill="#89b4fa" xml:space="preserve">repos,</text>
<text x="320.00" y="134.25" fill="#89b4fa" xml:space="preserve">3</text>
<text x="338.00" y="134.25" fill="#89b4fa" xml:space="preserve">commits)</text>
<text x="428.00" y="134.25" fill="#a6adc8" xml:space="preserve">last:</text>
<text x="482.00" y="134.25" fill="#a6adc8" xml:space="preserve">2025-0</text>
<text x="536.00" y="134.25" fill="#89b4fa" xml:space="preserve">│</text>
<text x="545.00" y="134.25" fill="#45475a" xml:space="preserve">│</text>
<text x="572.00" y="134.25" fill="#89b4fa" font-weight="bold" xml:space="preserve">design-system</text>
<text x="815.00" y="134.25" fill="#f9e2af" xml:space="preserve">2</text>
<text x="878.00" y="134.25" fill="#a6adc8" xml:space="preserve">2025-08-12</text>
<text x="977.00" y="134.25" fill="#a6adc8" xml:space="preserve">23:20:00</text>
<text x="1058.00" y="134.25" fill="#a6adc8" xml:space="preserve">~</text>
<text x="1076.00" y="134.25" fill="#a6adc8" xml:space="preserve">20</text>
<text x="1103.00" y="134.25" fill="#6c7086" xml:space="preserve">/home/dev/</text>
<text x="1193.00" y="134.25" fill="#45475a" xml:space="preserve">│</text>
<text x="14.00" y="154.05" fill="#89b4fa" xml:space="preserve">│</text>
<text x="41.00" y="154.05" fill="#6c7086" xml:space="preserve">[</text>
<text x="59.00" y="154.05" fill="#6c7086" xml:space="preserve">]</text>
<text x="77.00" y="154.05" fill="#6c7086" xml:space="preserve">Chen</text>
<text x="122.00" y="154.05" fill="#6c7086" xml:space="preserve">Wei</text>
<text x="230.00" y="154.05" fill="#89b4fa" xml:space="preserve">(3</text>
<text x="257.00" y="154.05" fill="#89b4fa" xml:space="preserve">repos,</text>
<text x="320.00" y="154.05" fill="#89b4fa" xml:space="preserve">3</text>
<text x="338.00" y="154.05" fill="#89b4fa" xml:space="preserve">commits)</text>
<text x="428.00" y="154.05" fill="#a6adc8" xml:space="preserve">last:</text>
<text x="482.00" y="154.05" fill="#a6adc8" xml:space="preserve">2025-0</text>
<text x="536.00" y="154.05" fill="#89b4fa" xml:space="preserve">│</text>
<text x="545.00" y="154.05" fill="#45475a" xml:space="preserve">│</text>
<text x="572.00" y="154.05" fill="#89b4fa" font-weight="bold" xml:space="preserve">api-gateway</text>
<text x="815.00" y="154.05" fill="#f9e2af" xml:space="preserve">1</text>
<text x="878.00" y="154.05" fill="#a6adc8" xml:space="preserve">2025-08-13</text>
<text x="977.00" y="154.05" fill="#a6adc8" xml:space="preserve">08:40:00</text>
<text x="1058.00" y="154.05" fill="#a6adc8" xml:space="preserve">~</text>
<text x="1076.00" y="154.05" fill="#a6adc8" xml:space="preserve">20</text>
<text x="1103.00" y="154.05" fill="#6c7086" xml:space="preserve">/home/dev/</text>
<text x="1193.00" y="154.05" fill="#45475a" xml:space="preserve">│</text>
<text x="14.00" y="173.85" fill="#89b4fa" xml:space="preserve">│</text>
<text x="536.00" y="173.85" fill="#89b4fa" xml:space="preserve">│</text>
<text x="545.00" y="173.85" fill="#45475a" xml:space="preserve">│</text>
<text x="1193.00" y="173.85" fill="#45475a" xml:space="preserve">│</text>
<text x="14.00" y="193.65" fill="#89b4fa" xml:space="preserve">│</text>
<text x="536.00" y="193.65" fill="#89b4fa" xml:space="preserve">│</text>
<text x="545.00" y="193.65" fill="#45475a" xml:space="preserve">│</text>
<text x="1193.00" y="193.65" fill="#45475a" xml:space="preserve">│</text>
<text x="14.00" y="213.45" fill="#89b4fa" xml:space="preserve">│</text>
<text x="536.00" y="213.45" fill="#89b4fa" xml:space="preserve">│</text>
<text x="545.00" y="213.45" fill="#45475a" xml:space="preserve">│</text>
<text x="1193.00" y="213.45" fill="#45475a" xml:space="preserve">│</text>
<text x="14.00" y="233.25" fill="#89b4fa" xml:space="preserve">│</text>
<text x="536.00" y="233.25" fill="#89b4fa" xml:space="preserve">│</text>
<text x="545.00" y="233.25" fill="#45475a" xml:space="preserve">│</text>
<text x="1193.00" y="233.25" fill="#45475a" xml:space="preserve">│</text>
<text x="14.00" y="253.05" fill="#89b4fa" xml:space="preserve">│</text>
<text x="536.00" y="253.05" fill="#89b4fa" xml:space="preserve">│</text>
<text x="545.00" y="253.05" fill="#45475a" xml:space="preserve">│</text>
<text x="1193.00" y="253.05" fill="#45475a" xml:space="preserve">│</text>
<text x="14.00" y="272.85" fill="#89b4fa" xml:space="preserve">│</text>
<text x="536.00" y="272.85" fill="#89b4fa" xml:space="preserve">│</text>
<text x="545.00" y="272.85" fill="#45475a" xml:space="preserve">│</text>
<text x="1193.00" y="272.85" fill="#45475a" xml:space="preserve">│</text>
<text x="14.00" y="292.65" fill="#89b4fa" xml:space="preserve">│</text>
<text x="536.00" y="292.65" fill="#89b4fa" xml:space="preserve">│</text>
<text x="545.00" y="292.65" fill="#45475a" xml:space="preserve">│</text>
<text x="1193.00" y="292.65" fill="#45475a" xml:space="preserve">│</text>
<text x="14.00" y="312.45" fill="#89b4fa" xml:space="preserve">│</text>
<text x="536.00" y="312.45" fill="#89b4fa" xml:space="preserve">│</text>
<text x="545.00" y="312.45" fill="#45475a" xml:space="preserve">│</text>
<text x="1193.00" y="312.45" fill="#45475a" xml:space="preserve">│</text>
<text x="14.00" y="332.25" fill="#89b4fa" xml:space="preserve">│</text>
<text x="536.00" y="332.25" fill="#89b4fa" xml:space="preserve">│</text>
<text x="545.00" y="332.25" fill="#45475a" xml:space="preserve">│</text>
<text x="1193.00" y="332.25" fill="#45475a" xml:space="preserve">│</text>
<text x="14.00" y="352.05" fill="#89b4fa" xml:space="preserve">│</text>
<text x="536.00" y="352.05" fill="#89b4fa" xml:space="preserve">│</text>
<text x="545.00" y="352.05" fill="#45475a" xml:space="preserve">│</text>
<text x="1193.00" y="352.05" fill="#45475a" xml:space="preserve">│</text>
<text x="14.00" y="371.85" fill="#89b4fa" xml:space="preserve">│</text>
<text x="536.00" y="371.85" fill="#89b4fa" xml:space="preserve">│</text>
<text x="545.00" y="371.85" fill="#45475a" xml:space="preserve">│</text>
<text x="1193.00" y="371.85" fill="#45475a" xml:space="preserve">│</text>
<text x="14.00" y="391.65" fill="#89b4fa" xml:space="preserve">│</text>
<text x="536.00" y="391.65" fill="#89b4fa" xml:space="preserve">│</text>
<text x="545.00" y="391.65" fill="#45475a" xml:space="preserve">│</text>
<text x="1193.00" y="391.65" fill="#45475a" xml:space="preserve">│</text>
<text x="14.00" y="411.45" fill="#89b4fa" xml:space="preserve">│</text>
<text x="536.00" y="411.45" fill="#89b4fa" xml:space="preserve">│</text>
<text x="545.00" y="411.45" fill="#45475a" xml:space="preserve">│</text>
<text x="1193.00" y="411.45" fill="#45475a" xml:space="preserve">│</text>
<text x="14.00" y="431.25" fill="#89b4fa" xml:space="preserve">│</text>
<text x="536.00" y="431.25" fill="#89b4fa" xml:space="preserve">│</text>
<text x="545.00" y="431.25" fill="#45475a" xml:space="preserve">│</text>
<text x="1193.00" y="431.25" fill="#45475a" xml:space="preserve">│</text>
<text x="14.00" y="451.05" fill="#89b4fa" xml:space="preserve">│</text>
<text x="536.00" y="451.05" fill="#89b4fa" xml:space="preserve">│</text>
<text x="545.00" y="451.05" fill="#45475a" xml:space="preserve">│</text>
<text x="1193.00" y="451.05" fill="#45475a" xml:space="preserve">│</text>
<text x="14.00" y="470.85" fill="#89b4fa" xml:space="preserve">│</text>
<text x="536.00" y="470.85" fill="#89b4fa" xml:space="preserve">│</text>
<text x="545.00" y="470.85" fill="#45475a" xml:space="preserve">│</text>
<text x="1193.00" y="470.85" fill="#45475a" xml:space="preserve">│</text>
<text x="14.00" y="490.65" fill="#89b4fa" xml:space="preserve">│</text>
<text x="536.00" y="490.65" fill="#89b4fa" xml:space="preserve">│</text>
<text x="545.00" y="490.65" fill="#45475a" xml:space="preserve">│</text>
<text x="1193.00" y="490.65" fill="#45475a" xml:space="preserve">│</text>
<text x="14.00" y="510.45" fill="#89b4fa" xml:space="preserve">└─────────────────────────────────────────────────────────┘</text>
<text x="545.00" y="510.45" fill="#45475a" xml:space="preserve">└───────────────────────────────────────────────────────────────────────┘</text>
<rect x="14.00" y="515.20" width="1188.00" height="19.80" fill="#313244"/>
<text x="14.00" y="530.25" fill="#89b4fa" font-weight="bold" xml:space="preserve">j/k</text>
<text x="50.00" y="530.25" fill="#a6adc8">移</text>
<text x="68.00" y="530.25" fill="#a6adc8">動</text>
<text x="104.00" y="530.25" fill="#89b4fa" font-weight="bold" xml:space="preserve">tab/h/l</text>
<text x="176.00" y="530.25" fill="#a6adc8">左</text>
<text x="194.00" y="530.25" fill="#a6adc8">右</text>
<text x="212.00" y="530.25" fill="#a6adc8">切</text>
<text x="230.00" y="530.25" fill="#a6adc8">替</text>
<text x="266.00" y="530.25" fill="#89b4fa" font-weight="bold" xml:space="preserve">enter</text>
<text x="320.00" y="530.25" fill="#a6adc8">開</text>
<text x="338.00" y="530.25" fill="#a6adc8">く</text>
<text x="374.00" y="530.25" fill="#89b4fa" font-weight="bold" xml:space="preserve">space/t</text>
<text x="446.00" y="530.25" fill="#a6adc8">在</text>
<text x="464.00" y="530.25" fill="#a6adc8">籍</text>
<text x="482.00" y="530.25" fill="#a6adc8">切</text>
<text x="500.00" y="530.25" fill="#a6adc8">替</text>
<text x="536.00" y="530.25" fill="#89b4fa" font-weight="bold" xml:space="preserve">m</text>
<text x="554.00" y="530.25" fill="#a6adc8">在</text>
<text x="572.00" y="530.25" fill="#a6adc8">籍</text>
<text x="590.00" y="530.25" fill="#a6adc8">の</text>
<text x="608.00" y="530.25" fill="#a6adc8">み</text>
<text x="644.00" y="530.25" fill="#89b4fa" font-weight="bold" xml:space="preserve">T</text>
<text x="662.00" y="530.25" fill="#a6adc8">シ</text>
<text x="680.00" y="530.25" fill="#a6adc8">ェ</text>
<text x="698.00" y="530.25" fill="#a6adc8">ル</text>
<text x="734.00" y="530.25" fill="#89b4fa" font-weight="bold" xml:space="preserve">?</text>
<text x="752.00" y="530.25" fill="#a6adc8">ヘ</text>
<text x="770.00" y="530.25" fill="#a6adc8">ル</text>
<text x="788.00" y="530.25" fill="#a6adc8">プ</text>
<text x="824.00" y="530.25" fill="#89b4fa" font-weight="bold" xml:space="preserve">esc</text>
<text x="860.00" y="530.25" fill="#a6adc8">戻</text>
<text x="878.00" y="530.25" fill="#a6adc8">る</text>
<text x="914.00" y="530.25" fill="#89b4fa" font-weight="bold" xml:space="preserve">q</text>
<text x="932.00" y="530.25" fill="#a6adc8">終</text>
<text x="950.00" y="530.25" fill="#a6adc8">了</text>
<rect x="14.00" y="535.00" width="1188.00" height="19.80" fill="#313244"/>
</svg>